HIERARCHY
ROOT Hips
{
	OFFSET 0.00 0.00 0.00
	CHANNELS 6 Xposition Yposition Zposition Xrotation Yrotation Zrotation
	JOINT LeftUpLeg
	{
		OFFSET 3.64953 0.00000 0.00000
		CHANNELS 3 Xrotation Yrotation Zrotation
		JOINT LeftLeg
		{
			OFFSET 0.00000 -15.70580 0.00000
			CHANNELS 3 Xrotation Yrotation Zrotation
			JOINT LeftFoot
			{
				OFFSET 0.00000 -15.41867 0.00000
				CHANNELS 3 Xrotation Yrotation Zrotation
				JOINT LeftToeBase
				{
					OFFSET 0.00000 -1.53543 5.73033
					CHANNELS 3 Xrotation Yrotation Zrotation
					End Site
					{
						OFFSET 0.00000 0.00000 2.95275
					}
				}
			}
		}
	}
	JOINT RightUpLeg
	{
		OFFSET -3.64953 0.00000 0.00000
		CHANNELS 3 Xrotation Yrotation Zrotation
		JOINT RightLeg
		{
			OFFSET 0.00000 -15.70580 0.00000
			CHANNELS 3 Xrotation Yrotation Zrotation
			JOINT RightFoot
			{
				OFFSET 0.00000 -15.41867 0.00000
				CHANNELS 3 Xrotation Yrotation Zrotation
				JOINT RightToeBase
				{
					OFFSET 0.00000 -1.53543 5.73033
					CHANNELS 3 Xrotation Yrotation Zrotation
					End Site
					{
						OFFSET 0.00000 0.00000 2.95275
					}
				}
			}
		}
	}
	JOINT Spine
	{
		OFFSET 0.00000 0.03937 0.00000
		CHANNELS 3 Xrotation Yrotation Zrotation
		JOINT Spine1
		{
			OFFSET 0.00000 10.24829 0.00000
			CHANNELS 3 Xrotation Yrotation Zrotation
			JOINT Neck
			{
				OFFSET 0.00000 7.82687 0.00000
				CHANNELS 3 Xrotation Yrotation Zrotation
				JOINT Head
				{
					OFFSET 0.00000 6.90715 0.00000
					CHANNELS 3 Xrotation Yrotation Zrotation
					End Site
					{
						OFFSET 0.00000 4.52755 0.00000
					}
				}
			}
			JOINT LeftShoulder
			{
				OFFSET 0.00000 7.82687 0.00000
				CHANNELS 3 Xrotation Yrotation Zrotation
				JOINT LeftArm
				{
					OFFSET 6.71018 -0.00002 0.00000
					CHANNELS 3 Xrotation Yrotation Zrotation
					JOINT LeftForeArm
					{
						OFFSET 10.94419 -0.00004 0.00000
						CHANNELS 3 Xrotation Yrotation Zrotation
						JOINT LeftHand
						{
							OFFSET 8.52010 -0.00003 0.00000
							CHANNELS 3 Xrotation Yrotation Zrotation
							JOINT LeftHandThumb
							{
								OFFSET 0.00000 0.00000 0.00000
								CHANNELS 3 Xrotation Yrotation Zrotation
								End Site
								{
									OFFSET 0.00000 0.00000 3.93700
								}
							}
							JOINT L_Wrist_End
							{
								OFFSET 3.93700 -0.00001 0.00000
								CHANNELS 3 Xrotation Yrotation Zrotation
							}
						}
					}
				}
			}
			JOINT RightShoulder
			{
				OFFSET 0.00000 7.82687 0.00000
				CHANNELS 3 Xrotation Yrotation Zrotation
				JOINT RightArm
				{
					OFFSET -6.71018 -0.00002 0.00000
					CHANNELS 3 Xrotation Yrotation Zrotation
					JOINT RightForeArm
					{
						OFFSET -10.94419 -0.00004 0.00000
						CHANNELS 3 Xrotation Yrotation Zrotation
						JOINT RightHand
						{
							OFFSET -8.52010 -0.00003 0.00000
							CHANNELS 3 Xrotation Yrotation Zrotation
							JOINT RightHandThumb
							{
								OFFSET 0.00000 0.00000 0.00000
								CHANNELS 3 Xrotation Yrotation Zrotation
								End Site
								{
									OFFSET 0.00000 0.00000 3.93700
								}
							}
							JOINT R_Wrist_End
							{
								OFFSET -5.39369 -0.00002 0.00000
								CHANNELS 3 Xrotation Yrotation Zrotation
							}
						}
					}
				}
			}
		}
	}
}
MOTION
Frames: 13
Frame Time: 0.066664
 61.2218 32.1183 -80.4494 147.9565 -76.5145 141.4407 -31.4204 0.9468 3.3432 62.6293 -0.0000 0.0000 -23.4485 -3.0203 4.1849 7.3900 0.0000 -0.0000 -1.7551 -2.4012 6.2646 28.5247 -0.0000 0.0000 -24.5002 2.4623 -5.0573 -6.1619 0.0000 0.0000 -2.3107 4.8294 1.1791 9.8911 3.3625 1.9541 -3.7302 0.6553 -5.6556 -5.1934 3.1553 5.0118 20.8083 15.6509 -3.9666 -3.9374 -34.7529 -60.3336 -179.9970 -85.9942 -179.9968 31.3740 17.1276 -47.9917 -0.0000 0.0000 -0.0000 -0.0000 0.0000 -0.0000 12.0791 -17.9908 0.3456 -12.3032 46.1156 69.9549 -179.9982 83.5096 179.9979 -25.6613 3.9095 0.2233 -0.0000 0.0000 -0.0000 -0.0000 0.0000 -0.0000
 57.0210 33.3447 -80.9781 136.4790 -78.6217 130.6963 -28.5909 1.4869 1.0187 35.1339 -0.0000 0.0000 -20.9663 -5.3959 2.5354 5.0463 0.0000 0.0000 5.7035 -6.5788 4.2172 23.7680 0.0000 -0.0000 -7.6536 6.6004 -0.0165 -8.2402 -0.0000 0.0000 -2.7889 5.1631 0.6796 9.8077 3.5843 1.4542 -4.2637 0.8261 -6.2170 -3.9964 2.2055 5.2012 20.3304 17.0275 -1.3614 0.8607 -26.0040 -60.2292 -179.9983 -82.9513 -179.9981 25.0652 16.1752 -41.0861 -0.0000 0.0000 -0.0000 -0.0000 0.0000 -0.0000 10.7431 -18.9637 -1.7450 -16.7634 45.7563 77.2395 -179.9992 75.6668 179.9989 -24.5757 3.5918 0.7060 -0.0000 0.0000 -0.0000 -0.0000 0.0000 -0.0000
 52.7570 33.0547 -81.3920 132.6776 -79.5265 127.8741 -24.9202 2.5215 -0.8031 23.1718 -0.0000 0.0000 -20.8425 -1.8937 6.3523 4.3003 0.0000 0.0000 5.2845 -5.7111 1.1328 34.3903 -0.0000 0.0000 -0.4439 8.7072 9.0697 -5.3686 0.0000 0.0000 -3.4469 5.0972 0.2765 10.3260 3.3105 0.3993 -4.0357 1.6023 -6.5294 -3.9521 2.7209 4.5184 20.0075 17.3212 -0.2879 2.2273 -20.6414 -61.1969 -179.9989 -79.3614 -179.9986 19.9207 17.6796 -33.5157 -0.0000 0.0000 -0.0000 -0.0000 0.0000 -0.0000 10.7240 -18.8619 -2.4337 -16.8759 44.7484 80.8916 -179.9992 74.5901 179.9990 -25.3081 6.1589 -2.4130 -0.0000 0.0000 -0.0000 -0.0000 0.0000 -0.0000
 48.6197 31.2345 -81.7699 131.2469 -80.9637 127.0274 -26.9278 3.3532 -1.3693 40.3924 0.0000 0.0000 -24.0573 -4.6139 5.1078 5.4672 -0.0000 0.0000 0.7271 -5.7191 -2.2218 53.4616 -0.0000 0.0000 -2.9445 4.0785 13.1866 -0.0665 -0.0000 -0.0000 -2.7320 4.6235 -0.2909 9.4050 2.7822 0.0885 -2.8008 1.7116 -6.1170 -5.8635 3.6717 3.2208 19.6605 17.1206 -0.8082 -0.9131 -22.7420 -62.6396 -179.9989 -79.3768 -179.9986 14.6480 13.3700 -26.2722 -0.0000 0.0000 -0.0000 -0.0000 0.0000 -0.0000 12.5976 -19.6357 0.0074 -11.6156 43.1737 76.8422 -179.9984 82.3289 179.9982 -23.3367 7.5735 -2.2782 -0.0000 0.0000 -0.0000 -0.0000 0.0000 -0.0000
 44.8087 30.0040 -82.0123 107.1978 -83.0653 104.1982 -23.8101 1.9957 -3.6974 49.8856 -0.0000 0.0000 -34.6477 -5.1834 5.9548 4.2643 0.0000 0.0000 -9.0626 -6.7850 -4.8604 70.6731 -0.0000 0.0000 -15.1895 -5.2527 1.4699 1.2530 0.0000 -0.0000 -2.3778 3.6060 -0.8774 10.4053 1.5227 -0.8453 -2.7682 0.4681 -4.9062 -8.1034 4.2023 2.3758 20.2991 14.6305 -4.1377 -11.7900 -33.8842 -62.9665 -179.9989 -79.4758 -179.9986 7.8240 9.6561 -22.9640 -0.0000 0.0000 -0.0000 -0.0000 0.0000 -0.0000 15.8844 -20.3794 3.7724 -4.0523 38.1318 70.2774 -0.0054 87.7849 0.0052 -14.5498 7.3015 -8.5195 -0.0000 0.0000 -0.0000 -0.0000 0.0000 -0.0000
 40.7371 30.8938 -82.2820 102.5071 -83.4373 99.5626 -11.5266 -0.6178 -3.7469 40.4733 -0.0000 0.0000 -31.4200 -4.3099 4.8679 -0.6216 0.0000 0.0000 -18.6618 -2.7561 -2.8577 70.0024 -0.0000 0.0000 -21.6213 -3.1852 -5.1433 0.4335 -0.0000 0.0000 -3.0429 2.2213 -0.6487 10.2002 -0.0036 -1.1308 -1.0691 2.3012 -5.2670 -4.6984 6.0409 3.5273 19.5079 14.5229 -2.7565 -23.4546 -46.4133 -71.2959 -179.9991 -76.1153 -179.9989 5.6521 6.2501 -18.5580 -0.0000 0.0000 -0.0000 -0.0000 0.0000 -0.0000 15.2723 -21.2835 1.6996 7.5685 35.6770 64.9275 -0.0104 88.8459 0.0102 -20.4124 6.4206 -3.2280 -0.0000 0.0000 -0.0000 -0.0000 0.0000 -0.0000
 36.4707 32.6096 -82.6187 96.3682 -83.4388 93.3860 -0.0444 -1.4567 -1.9506 29.4628 -0.0000 0.0000 -14.5797 -6.5939 2.1748 -11.7709 0.0000 0.0000 -23.4121 0.4263 0.2381 52.5603 -0.0000 0.0000 -23.5932 -4.0198 -5.8657 2.1771 -0.0000 0.0000 -3.8013 0.7259 -0.8848 9.8609 -1.3758 -0.4015 -0.3339 5.0656 -5.4638 -1.9320 7.8844 3.7313 17.3134 14.0206 -0.1278 -32.7927 -54.1245 -80.4692 -179.9994 -71.2405 -179.9991 0.0709 5.1559 -17.2531 -0.0000 0.0000 -0.0000 -0.0000 0.0000 -0.0000 15.1193 -21.7466 0.2064 15.4929 33.5979 61.2620 -179.9862 89.1264 179.9860 -23.4932 6.8248 -2.4776 -0.0000 0.0000 -0.0000 -0.0000 0.0000 -0.0000
 32.2536 33.4680 -82.8720 85.6510 -83.2639 82.7309 4.0466 -0.1655 -0.3645 30.8953 0.0000 -0.0000 -1.8306 -8.5263 -3.1987 -9.0430 0.0000 -0.0000 -23.1701 -0.4677 1.2487 29.5456 -0.0000 0.0000 -23.8703 -2.5237 -2.1837 1.2233 -0.0000 0.0000 -4.3208 0.0664 -0.4330 10.3590 -1.9888 -0.0170 -1.2158 6.7378 -6.1503 -1.1186 8.1257 3.7382 14.9013 14.1197 2.3701 -40.0805 -57.6743 -88.1161 -179.9995 -67.8166 -179.9992 -1.0844 4.4040 -19.3906 -0.0000 0.0000 -0.0000 -0.0000 0.0000 -0.0000 14.7233 -22.0224 -1.2347 18.0105 30.6960 61.4789 -179.9915 88.5800 179.9913 -22.5781 3.1558 0.4762 -0.0000 0.0000 -0.0000 -0.0000 0.0000 -0.0000
 27.9342 32.6636 -83.2610 59.8699 -83.7598 56.6042 1.9959 -2.1923 1.8151 47.8827 -0.0000 0.0000 -0.5870 -8.5789 -9.4046 4.8891 0.0000 -0.0000 -21.1123 -2.9872 2.5933 22.4051 0.0000 0.0000 -21.7347 -2.0189 5.5594 -2.2769 0.0000 0.0000 -3.9319 -0.2277 -0.1994 11.3916 -2.0890 0.6520 -1.5443 6.3669 -5.8177 -2.9550 7.9633 3.0401 14.7329 13.8929 2.5316 -39.8897 -57.6933 -87.8975 -179.9995 -67.4871 -179.9992 -4.2631 3.8581 -18.0809 -0.0000 0.0000 -0.0000 -0.0000 0.0000 -0.0000 15.0542 -20.8910 -0.7606 17.3366 30.3276 61.0965 -179.8453 89.9220 179.8451 -21.8964 3.5493 -0.8789 -0.0000 -0.0000 0.0000 -0.0000 -0.0000 0.0000
 23.8874 30.6772 -83.7511 50.9273 -84.3298 46.0604 -5.3194 -0.7473 5.9021 70.0630 -0.0000 0.0000 -10.9554 -2.4197 -4.0937 5.8869 -0.0000 0.0000 -24.8408 -2.5800 6.4800 44.8437 -0.0000 0.0000 -31.0825 0.5851 -6.8144 4.1549 0.0000 0.0000 -2.2952 1.3489 0.4740 9.6930 -0.2825 2.0634 -0.6177 4.3216 -5.8667 -5.9355 7.0276 2.3878 18.4724 14.0247 -1.3394 -32.0993 -56.1100 -78.8350 -179.9993 -74.0722 -179.9990 -3.8115 1.9689 -15.6696 -0.0000 0.0000 -0.0000 -0.0000 0.0000 -0.0000 15.7880 -20.8013 1.9936 12.5011 34.7294 57.9405 -0.0130 89.0736 0.0128 -21.9983 4.3632 -2.8254 -0.0000 0.0000 -0.0000 -0.0000 0.0000 -0.0000
 20.0790 30.0242 -83.8538 47.0166 -83.7932 41.8185 -17.0648 -0.8174 6.6770 81.2192 -0.0000 0.0000 -19.3388 1.0565 3.8738 6.1176 -0.0000 0.0000 -18.7563 -3.2845 7.4931 48.2031 -0.0000 0.0000 -39.1400 0.3571 -6.7561 2.9167 0.0000 0.0000 -2.4063 2.2687 0.9034 10.8025 0.6805 2.2463 -1.3070 3.8477 -6.1633 -7.2778 6.9281 2.2311 21.3715 13.6574 -5.1584 -17.2166 -49.0548 -66.4820 -179.9979 -84.3765 -179.9976 2.9194 -0.0381 -12.7286 -0.0000 0.0000 -0.0000 -0.0000 0.0000 -0.0000 16.0440 -19.0985 4.4912 -1.4285 44.9307 57.9563 -0.0656 89.8161 0.0654 -20.9441 4.4174 -3.4973 -0.0000 -0.0000 0.0000 -0.0000 -0.0000 0.0000
 16.0315 31.2905 -83.6464 46.9060 -83.4154 41.7030 -25.2433 0.5470 5.6831 71.8010 -0.0000 0.0000 -23.3358 0.8644 6.8891 5.9031 0.0000 -0.0000 -6.2468 -1.7589 7.6327 36.6741 0.0000 0.0000 -31.7201 0.9482 -5.2555 -1.3458 -0.0000 0.0000 -2.5568 4.3388 1.0244 10.5896 2.6485 1.6950 -1.2110 2.5163 -5.8488 -5.5328 5.7896 2.8390 21.8616 15.2554 -5.7273 -2.7325 -40.6914 -57.8462 -179.9976 -84.9250 -179.9974 -1.2687 -0.6370 -14.0236 -0.0000 0.0000 -0.0000 -0.0000 0.0000 -0.0000 13.7276 -17.8945 1.9234 -14.7474 52.1368 65.4988 -179.9979 84.1864 179.9977 -18.6640 4.5617 -2.2955 -0.0000 0.0000 -0.0000 -0.0000 0.0000 -0.0000
 11.8501 33.0739 -83.0881 44.2064 -81.0764 40.7476 -28.1331 1.3549 1.4669 47.8539 -0.0000 0.0000 -22.0971 -1.7873 6.0791 4.3144 0.0000 0.0000 2.9194 -5.5389 4.1791 27.1323 -0.0000 0.0000 -12.6180 5.5239 -2.4417 -14.5200 0.0000 -0.0000 -3.4472 5.9060 0.4997 10.6675 3.7067 -0.8089 -1.5608 1.6839 -5.4866 -5.0476 3.4914 3.9486 21.1617 16.5662 -2.9211 4.6982 -33.3298 -55.4816 -179.9978 -84.6341 -179.9975 -3.9504 -0.3256 -13.2682 -0.0000 -0.0000 0.0000 -0.0000 -0.0000 0.0000 11.5031 -17.7753 -0.5443 -23.3389 52.7832 75.2787 -179.9990 77.7867 179.9988 -20.1232 4.5543 -1.8297 -0.0000 0.0000 -0.0000 -0.0000 0.0000 -0.0000
